<svg xmlns="http://www.w3.org/2000/svg" width="307" height="121" viewBox="0 0 307 121" fill="none">
    <g clip-path="url(#clip0_7300_4757)">
        <mask id="mask0_7300_4757" style="mask-type:alpha" maskUnits="userSpaceOnUse" x="87" y="47" width="50" height="59">
            <path d="M87.5586 90.5786L116.744 49.1798L136.949 47.6133L96.0626 105.124L87.5586 90.5786Z" fill="url(#paint0_linear_7300_4757)"/>
            <path d="M87.5586 90.5786L116.744 49.1798L136.949 47.6133L96.0626 105.124L87.5586 90.5786Z" fill="white"/>
        </mask>
        <g mask="url(#mask0_7300_4757)">
            <path fill-rule="evenodd" clip-rule="evenodd" d="M63.0898 49.2773L98.1118 101.843L133.134 49.2773C132.097 49.4285 130.91 49.5694 129.641 49.7188C124.407 50.3373 117.768 51.1216 114.442 53.5448C111.325 55.8167 107.273 62.047 103.317 68.1311C101.531 70.878 99.7641 73.5945 98.1118 75.9039C96.4596 73.5945 94.6927 70.878 92.907 68.1311C88.951 62.047 84.8992 55.8167 81.7814 53.5448C78.4558 51.1216 95.9411 81.7989 90.7067 81.1804C89.4377 81.0306 64.1264 49.4285 63.0898 49.2773ZM88.6676 53.9323L98.1118 67.7048L107.36 53.5448L98.1118 55.872L88.6676 53.9323Z" fill="url(#paint1_linear_7300_4757)"/>
            <path fill-rule="evenodd" clip-rule="evenodd" d="M63.0898 49.2773L98.1118 101.843L133.134 49.2773C132.097 49.4285 130.91 49.5694 129.641 49.7188C124.407 50.3373 117.768 51.1216 114.442 53.5448C111.325 55.8167 107.273 62.047 103.317 68.1311C101.531 70.878 99.7641 73.5945 98.1118 75.9039C96.4596 73.5945 94.6927 70.878 92.907 68.1311C88.951 62.047 84.8992 55.8167 81.7814 53.5448C78.4558 51.1216 95.9411 81.7989 90.7067 81.1804C89.4377 81.0306 64.1264 49.4285 63.0898 49.2773ZM88.6676 53.9323L98.1118 67.7048L107.36 53.5448L98.1118 55.872L88.6676 53.9323Z" fill="white"/>
        </g>
        <path fill-rule="evenodd" clip-rule="evenodd" d="M65.0608 47.3705C62.8887 41.7452 62.5735 38.441 66.2456 33.2104C68.5041 29.994 69.9231 28.807 71.6474 27.3644C72.9383 26.2849 74.4003 25.0617 76.5142 22.7363C81.3187 17.4501 80.1711 12.8911 79.5644 10.4834C79.5335 10.3592 79.5039 10.2407 79.4762 10.1282C78.4082 5.75668 75.5752 1.85826 74.7375 0.706059C74.6457 0.580088 74.578 0.486937 74.5395 0.429592C74.1442 -0.152284 69.8004 6.63643 69.2076 11.2919C68.8856 13.824 69.7323 15.3522 70.4353 16.6207C70.6422 16.9943 70.8365 17.3453 70.9847 17.6929C71.8816 19.7916 72.3674 23.3182 69.6029 23.9001C66.838 24.482 63.983 20.9554 64.8633 18.0809C65.2309 16.882 60.9297 24.0241 59.0464 31.6238C57.3722 38.3777 61.2037 42.8284 63.7672 45.8049C64.262 46.3801 64.7093 46.8996 65.0608 47.3705ZM80.8396 36.0536C77.8772 38.5752 79.6548 42.8426 82.4193 41.8723C86.2544 40.527 88.4866 36.7358 89.8715 31.5922C90.1209 36.4415 89.4493 39.1571 88.3433 42.2607C86.961 46.1402 83.6041 48.2739 81.8269 49.0498C80.0493 49.8257 75.1127 51.3775 70.9659 48.8558C66.8187 46.3342 66.5572 41.8585 66.8187 39.5451C67.2141 36.0536 68.9913 32.7342 76.2975 26.3549C81.4925 21.819 81.6774 16.2137 81.7477 14.0786C81.7741 13.2918 81.7844 12.9762 82.024 13.3589L82.0817 13.4515C83.6476 15.9495 85.4064 18.7557 86.3686 23.6393C87.5534 29.6524 82.9499 34.257 80.8396 36.0536ZM39.1016 49.2754L74.2512 101.841L109.401 49.2754C108.36 49.4266 107.169 49.5671 105.895 49.7164C100.642 50.3349 93.9784 51.1197 90.6412 53.5428C87.5118 55.8143 83.4461 62.0447 79.4748 68.1288C77.6829 70.8756 75.9093 73.5921 74.2512 75.9015C72.5927 73.5921 70.8195 70.8756 69.0275 68.1288C65.0568 62.0447 60.9901 55.8143 57.8612 53.5428C54.5235 51.1197 47.8599 50.3349 42.6071 49.7164C41.3332 49.5671 40.1422 49.4266 39.1016 49.2754ZM62.6218 111.819L60.6709 105.922L58.7204 111.819H52.4078L57.5146 115.464L55.5641 121.36L60.6709 117.716L65.7781 121.36L63.8272 115.464L68.9344 111.819H62.6218ZM87.1079 111.819L85.1574 105.922L83.2065 111.819H76.8939L82.0011 115.464L80.0502 121.36L85.1574 117.716L90.2642 121.36L88.3133 115.464L93.4205 111.819H87.1079ZM109.643 105.922L111.594 111.819H117.907L112.8 115.464L114.751 121.36L109.643 117.716L104.536 121.36L106.487 115.464L101.38 111.819H107.693L109.643 105.922ZM64.7724 53.9303L74.2512 67.7025L83.5325 53.5428L74.2512 55.8701L64.7724 53.9303Z" fill="url(#paint2_linear_7300_4757)"/>
        <path fill-rule="evenodd" clip-rule="evenodd" d="M65.0608 47.3705C62.8887 41.7452 62.5735 38.441 66.2456 33.2104C68.5041 29.994 69.9231 28.807 71.6474 27.3644C72.9383 26.2849 74.4003 25.0617 76.5142 22.7363C81.3187 17.4501 80.1711 12.8911 79.5644 10.4834C79.5335 10.3592 79.5039 10.2407 79.4762 10.1282C78.4082 5.75668 75.5752 1.85826 74.7375 0.706059C74.6457 0.580088 74.578 0.486937 74.5395 0.429592C74.1442 -0.152284 69.8004 6.63643 69.2076 11.2919C68.8856 13.824 69.7323 15.3522 70.4353 16.6207C70.6422 16.9943 70.8365 17.3453 70.9847 17.6929C71.8816 19.7916 72.3674 23.3182 69.6029 23.9001C66.838 24.482 63.983 20.9554 64.8633 18.0809C65.2309 16.882 60.9297 24.0241 59.0464 31.6238C57.3722 38.3777 61.2037 42.8284 63.7672 45.8049C64.262 46.3801 64.7093 46.8996 65.0608 47.3705ZM80.8396 36.0536C77.8772 38.5752 79.6548 42.8426 82.4193 41.8723C86.2544 40.527 88.4866 36.7358 89.8715 31.5922C90.1209 36.4415 89.4493 39.1571 88.3433 42.2607C86.961 46.1402 83.6041 48.2739 81.8269 49.0498C80.0493 49.8257 75.1127 51.3775 70.9659 48.8558C66.8187 46.3342 66.5572 41.8585 66.8187 39.5451C67.2141 36.0536 68.9913 32.7342 76.2975 26.3549C81.4925 21.819 81.6774 16.2137 81.7477 14.0786C81.7741 13.2918 81.7844 12.9762 82.024 13.3589L82.0817 13.4515C83.6476 15.9495 85.4064 18.7557 86.3686 23.6393C87.5534 29.6524 82.9499 34.257 80.8396 36.0536ZM39.1016 49.2754L74.2512 101.841L109.401 49.2754C108.36 49.4266 107.169 49.5671 105.895 49.7164C100.642 50.3349 93.9784 51.1197 90.6412 53.5428C87.5118 55.8143 83.4461 62.0447 79.4748 68.1288C77.6829 70.8756 75.9093 73.5921 74.2512 75.9015C72.5927 73.5921 70.8195 70.8756 69.0275 68.1288C65.0568 62.0447 60.9901 55.8143 57.8612 53.5428C54.5235 51.1197 47.8599 50.3349 42.6071 49.7164C41.3332 49.5671 40.1422 49.4266 39.1016 49.2754ZM62.6218 111.819L60.6709 105.922L58.7204 111.819H52.4078L57.5146 115.464L55.5641 121.36L60.6709 117.716L65.7781 121.36L63.8272 115.464L68.9344 111.819H62.6218ZM87.1079 111.819L85.1574 105.922L83.2065 111.819H76.8939L82.0011 115.464L80.0502 121.36L85.1574 117.716L90.2642 121.36L88.3133 115.464L93.4205 111.819H87.1079ZM109.643 105.922L111.594 111.819H117.907L112.8 115.464L114.751 121.36L109.643 117.716L104.536 121.36L106.487 115.464L101.38 111.819H107.693L109.643 105.922ZM64.7724 53.9303L74.2512 67.7025L83.5325 53.5428L74.2512 55.8701L64.7724 53.9303Z" fill="white"/>
        <path d="M-0.304688 96.2658L17.9866 48.5527H31.7559L49.8452 96.2658H35.8059L22.3738 55.7231H27.2339L13.4646 96.2658H-0.304688ZM11.5747 88.2241V77.7701H38.4383V88.2241H11.5747Z" fill="white"/>
        <path d="M121.938 96.3517L140.167 48.4692H153.89L171.918 96.3517H157.926L144.539 55.665H149.383L135.66 96.3517H121.938ZM133.776 88.2815V77.7904H160.549V88.2815H133.776ZM186.654 77.2527V67.9718H194.793C196.632 67.9718 198.022 67.5237 198.964 66.6269C199.95 65.7302 200.444 64.5423 200.444 63.0627C200.444 61.5832 199.95 60.3948 198.964 59.4981C198.022 58.6018 196.632 58.1532 194.793 58.1532H186.654V48.4692H196.946C200.264 48.4692 203.179 49.0743 205.691 50.285C208.202 51.4952 210.175 53.1768 211.61 55.3287C213.045 57.4807 213.763 59.9912 213.763 62.8607C213.763 65.7302 213.023 68.2407 211.543 70.3931C210.108 72.5451 208.09 74.2262 205.489 75.4369C202.888 76.6471 199.816 77.2527 196.273 77.2527H186.654ZM175.757 96.3517V48.4692H189.21V96.3517H175.757ZM201.587 96.3517L188.537 75.9073L200.646 73.2849L216.857 96.3517H201.587ZM229.243 96.3517V84.9193H240.41C242.921 84.9193 245.096 84.4707 246.935 83.574C248.773 82.6326 250.186 81.2204 251.173 79.3373C252.159 77.4542 252.652 75.123 252.652 72.3431C252.652 69.5633 252.137 67.2543 251.105 65.4163C250.119 63.5782 248.706 62.2106 246.867 61.3138C245.074 60.3725 242.921 59.9016 240.41 59.9016H228.571V48.4692H240.41C244.177 48.4692 247.63 49.0297 250.769 50.1503C253.953 51.2714 256.711 52.8851 259.043 54.9925C261.375 57.0995 263.169 59.6327 264.424 62.5918C265.725 65.5059 266.375 68.7789 266.375 72.4105C266.375 76.042 265.725 79.3373 264.424 82.2964C263.169 85.2105 261.375 87.7214 259.043 89.8284C256.711 91.9358 253.976 93.5496 250.836 94.6706C247.697 95.7912 244.267 96.3517 240.544 96.3517H229.243ZM220.229 96.3517V48.4692H233.683V96.3517H220.229ZM287.334 97.1588C283.253 97.1588 279.688 96.576 276.638 95.4104C273.634 94.1997 270.853 92.2943 268.297 89.6937L276.706 81.2878C278.455 82.9466 280.294 84.2241 282.222 85.1208C284.15 85.9725 286.213 86.3988 288.41 86.3988C290.249 86.3988 291.639 86.1295 292.581 85.5917C293.523 85.0089 293.993 84.2241 293.993 83.2377C293.993 82.2514 293.59 81.4447 292.783 80.8169C291.975 80.1444 290.899 79.5616 289.554 79.0684C288.253 78.5302 286.796 77.9924 285.181 77.4542C283.612 76.9164 282.042 76.2663 280.473 75.5038C278.903 74.7417 277.446 73.8227 276.1 72.7467C274.8 71.6256 273.746 70.2585 272.938 68.6442C272.132 66.9854 271.728 64.9681 271.728 62.5918C271.728 59.4981 272.468 56.8306 273.948 54.589C275.428 52.3473 277.513 50.6435 280.203 49.4779C282.894 48.2672 286.056 47.6621 289.689 47.6621C293.276 47.6621 296.594 48.2449 299.644 49.4105C302.738 50.5316 305.295 52.1453 307.313 54.2527L298.837 62.6592C297.357 61.2242 295.877 60.1709 294.397 59.4981C292.917 58.781 291.303 58.4221 289.554 58.4221C288.163 58.4221 287.043 58.6464 286.191 59.095C285.383 59.5431 284.98 60.2155 284.98 61.1123C284.98 62.0536 285.383 62.8384 286.191 63.4663C286.997 64.0491 288.051 64.5869 289.352 65.08C290.697 65.5732 292.155 66.0887 293.724 66.6269C295.339 67.1647 296.931 67.8148 298.501 68.5774C300.07 69.2944 301.505 70.2362 302.805 71.4018C304.151 72.5224 305.227 73.9346 306.035 75.6384C306.842 77.3423 307.245 79.4046 307.245 81.8255C307.245 86.7123 305.496 90.5008 301.998 93.191C298.545 95.8362 293.657 97.1588 287.334 97.1588Z" fill="white"/>
    </g>
    <defs>
        <linearGradient id="paint0_linear_7300_4757" x1="112.254" y1="47.6133" x2="112.254" y2="105.124" gradientUnits="userSpaceOnUse">
            <stop stop-color="#FFE797"/>
            <stop offset="1" stop-color="#D5A507"/>
        </linearGradient>
        <linearGradient id="paint1_linear_7300_4757" x1="98.1118" y1="49.2773" x2="98.1118" y2="101.843" gradientUnits="userSpaceOnUse">
            <stop stop-color="#FFE797"/>
            <stop offset="1" stop-color="#D5A507"/>
        </linearGradient>
        <linearGradient id="paint2_linear_7300_4757" x1="78.5041" y1="0.394531" x2="78.5041" y2="121.36" gradientUnits="userSpaceOnUse">
            <stop stop-color="#FFE797"/>
            <stop offset="1" stop-color="#D5A507"/>
        </linearGradient>
        <clipPath id="clip0_7300_4757">
            <rect width="307" height="121" fill="white"/>
        </clipPath>
    </defs>
</svg>
