<svg width="163" height="162" viewBox="0 0 163 162" xmlns="http://www.w3.org/2000/svg">
<rect y="0.22937" width="162.193" height="161.431" fill="url(#gradient)"/>
<path fill-rule="evenodd" clip-rule="evenodd" d="M70.1723 64.638C67.7312 58.2151 67.3769 54.4426 71.5038 48.4702C74.0417 44.7972 75.6363 43.4419 77.5739 41.795C79.0247 40.562 80.6678 39.1654 83.0431 36.5102C88.4426 30.4744 87.1529 25.2689 86.4712 22.5196C86.4361 22.3778 86.4028 22.2425 86.3717 22.114C85.1715 17.1226 81.9876 12.6713 81.0466 11.3557C80.9438 11.2119 80.8677 11.1055 80.824 11.04C80.3802 10.3756 75.4981 18.1271 74.8324 23.4429C74.4703 26.334 75.4218 28.0789 76.2116 29.5274C76.4441 29.954 76.6627 30.3548 76.8296 30.7517C77.8373 33.148 78.383 37.1746 75.2762 37.839C72.1695 38.5035 68.9609 34.4769 69.9504 31.1946C70.3631 29.8258 65.5303 37.9806 63.4131 46.6583C61.5317 54.37 65.8379 59.4519 68.7183 62.8507C69.2743 63.5072 69.7773 64.1007 70.1723 64.638ZM87.9038 51.7161C84.575 54.5955 86.5723 59.4682 89.6791 58.3604C93.9886 56.8242 96.4975 52.4953 98.0535 46.6222C98.3336 52.1592 97.5791 55.2599 96.3364 58.8038C94.783 63.2334 91.0105 65.6697 89.0134 66.5556C87.0162 67.4415 81.4682 69.2134 76.8081 66.3341C72.148 63.4549 71.8539 58.3445 72.148 55.7031C72.5918 51.7161 74.589 47.9263 82.7997 40.6421C88.6374 35.463 88.8456 29.0627 88.9246 26.6247C88.9539 25.7264 88.9659 25.3661 89.2353 25.803L89.3001 25.9087C91.0594 28.761 93.0357 31.9652 94.1173 37.5414C95.4487 44.4072 90.2751 49.6647 87.9038 51.7161ZM41 66.813L80.5 126.834L120 66.813C118.831 66.9857 117.492 67.1461 116.061 67.3171C110.157 68.0231 102.669 68.9188 98.9185 71.6855C95.4021 74.2795 90.8326 81.3939 86.3704 88.3408C84.3561 91.477 82.3636 94.579 80.5 97.2155C78.6364 94.579 76.6439 91.477 74.6295 88.3408C70.1676 81.3939 65.5978 74.2795 62.0815 71.6855C58.3308 68.9188 50.8428 68.0231 44.9392 67.3171C43.5077 67.1461 42.1693 66.9857 41 66.813ZM55.1753 139.105L52.9831 132.371L50.791 139.105H43.697L49.4361 143.267L47.244 150L52.9831 145.838L58.7223 150L56.5302 143.267L62.2693 139.105H55.1753ZM82.6922 139.105L80.5 132.371L78.3078 139.105H71.2139L76.953 143.267L74.7608 150L80.5 145.838L86.239 150L84.047 143.267L89.786 139.105H82.6922ZM108.017 132.371L110.209 139.105H117.303L111.564 143.267L113.756 150L108.017 145.838L102.278 150L104.47 143.267L98.7308 139.105H105.825L108.017 132.371ZM69.8483 72.1285L80.5 87.8536L90.9298 71.6855L80.5 74.3433L69.8483 72.1285Z" fill="white"/>
<defs>
<linearGradient id="gradient" x1="29.2133" y1="424.089" x2="-241.85" y2="266.405" gradientUnits="userSpaceOnUse">
<stop stop-color="#00CAFF"/>
<stop offset="0.471597" stop-color="#4300FF"/>
<stop offset="0.804019" stop-color="#BC71DB"/>
</linearGradient>
</defs>
</svg>
