<svg width="176" height="242" viewBox="0 0 176 242" fill="#000000" xmlns="http://www.w3.org/2000/svg">
    <g>
        <path d="M86.6068 180.034C86.0839 180.027 86.0912 179.504 86.6068 180.034L84.0142 178.429L83.4986 177.899L22.4076 133.113C22.4076 133.113 21.8847 133.106 21.892 132.583L20.8607 131.522L20.3451 130.992L19.2993 130.977L1.69531 118.179L36.6577 123.897C38.2264 123.919 38.7421 124.449 40.3035 124.994C40.8264 125.002 41.865 125.539 41.865 125.539C43.4264 126.084 43.942 126.614 44.9806 127.152C46.0191 127.689 46.5347 128.219 47.5732 128.757C48.0889 129.287 49.1274 129.825 49.1201 130.348C49.6357 130.878 50.1586 130.885 50.6742 131.415C51.7128 131.953 52.2284 132.483 52.2211 133.006C53.7679 134.597 54.7919 136.18 56.346 137.248L83.5132 176.853L84.0288 177.383L86.6068 180.034Z" />
        <path d="M85.7763 240.693L83.2201 236.473L82.7045 235.943L2.23438 118.187L19.8383 130.985L22.9466 133.12L84.0376 177.906L84.5605 177.914L86.6303 179.512C86.6303 179.512 87.1532 179.519 87.1459 180.042L89.7897 177.987L173.751 120.581L88.4493 236.546L87.9191 237.062L85.7763 240.693Z" />
        <path d="M86.8727 160.164L84.3165 155.944L83.8009 155.414L63.8013 126.892L84.1366 131.36L84.6595 131.367L87.2668 131.927L89.8887 131.44L109.825 127.011L89.5457 156.017L89.5384 156.54L86.8727 160.164Z" />
        <path d="M174.257 120.067L148.06 123.362L138.103 124.792C130.245 125.729 122.865 129.81 118.064 136.542L89.7951 175.897L89.2648 176.412L86.5992 180.036L89.7805 176.943L90.3107 176.427L86.5992 180.036L157.893 130.822L174.257 120.067Z" />
        <path d="M101.694 36.415C101.373 59.4232 61.4636 70.8956 61.1206 95.4726C60.5174 101.217 62.0058 106.991 64.5474 112.257C64.5474 112.257 49.5872 97.4037 49.8062 81.7163C50.0251 66.0288 64.9952 42.7019 64.9952 42.7019C64.8493 53.1603 68.9888 56.3561 73.1648 56.9374L73.6877 56.9447C78.394 57.0104 81.0597 53.3865 81.1327 48.1574C81.2056 42.9282 75.5265 37.6188 75.6725 27.1604C75.8112 17.225 88.5875 1.18982 88.5875 1.18982C97.331 11.7722 101.869 23.865 101.694 36.415Z" />
        <path d="M89.537 119.931C76.9871 119.756 67.7133 109.689 67.8811 97.6623L67.8884 97.1394C68.2607 70.4707 105.424 68.3743 105.928 32.2931C106.952 33.8765 116.697 47.611 116.493 62.2526C116.238 80.5547 98.9156 85.02 98.7916 93.9096C98.7405 97.57 100.273 100.206 105.502 100.279C106.025 100.287 106.548 100.294 107.078 99.7785C117.072 95.7338 124.001 86.4162 124.677 75.4423C124.67 75.9652 129.279 120.486 89.537 119.931Z" />
        <path d="M106.02 100.287C106.543 100.294 107.066 100.301 107.596 99.7858C102.345 101.282 82.9318 105.718 83.1216 92.1219C83.3551 75.3886 112.167 72.1296 112.364 58.0109C112.488 49.1213 110.52 40.2026 105.923 32.2931C106.947 33.8765 116.693 47.611 116.489 62.2526C116.233 80.5547 98.9112 85.0201 98.7871 93.9096C99.259 97.5773 101.314 100.221 106.02 100.287Z" />
        <path d="M91.1001 45.6814C90.9177 58.7543 74.199 57.4749 73.1604 56.9373L74.7292 56.9592C79.4354 57.0249 82.1011 53.401 82.1741 48.1719C82.2471 42.9427 76.568 37.6333 76.714 27.1749C76.8526 17.2395 89.6289 1.20432 89.6289 1.20432C85.3507 7.94383 83.1568 15.2355 82.5317 22.549C82.3638 34.576 91.2388 35.746 91.1001 45.6814Z" />
    </g>
</svg>
