<svg xmlns="http://www.w3.org/2000/svg" width="36" height="36" viewBox="0 0 36 36" fill="none">
    <path d="M18 36C27.9411 36 36 27.9411 36 18C36 8.05888 27.9411 0 18 0C8.05888 0 0 8.05888 0 18C0 27.9411 8.05888 36 18 36Z" fill="#FF0000"/>
    <path d="M23.8893 11.2285H12.1088C11.638 11.2285 11.1719 11.3213 10.7369 11.5015C10.302 11.6817 9.9069 11.9459 9.57411 12.2789C9.24133 12.6119 8.97743 13.0072 8.79748 13.4423C8.61754 13.8773 8.52508 14.3435 8.52539 14.8143V21.1854C8.52508 21.6561 8.61754 22.1224 8.79748 22.5574C8.97743 22.9924 9.24133 23.3877 9.57411 23.7208C9.9069 24.0538 10.302 24.3179 10.7369 24.4981C11.1719 24.6784 11.638 24.7711 12.1088 24.7711H23.8893C24.3601 24.7711 24.8263 24.6784 25.2612 24.4981C25.6961 24.3179 26.0913 24.0538 26.424 23.7208C26.7568 23.3877 27.0207 22.9924 27.2007 22.5574C27.3806 22.1224 27.4731 21.6561 27.4728 21.1854V14.8143C27.4731 14.3435 27.3806 13.8773 27.2007 13.4423C27.0207 13.0072 26.7568 12.6119 26.424 12.2789C26.0913 11.9459 25.6961 11.6817 25.2612 11.5015C24.8263 11.3213 24.3601 11.2285 23.8893 11.2285ZM15.5028 20.9035V15.0961L20.4954 17.9998L15.5028 20.9035Z" fill="white"/>
</svg>
