<svg xmlns="http://www.w3.org/2000/svg" width="18" height="18" viewBox="0 0 18 18" fill="none">
    <path d="M9 18C13.9706 18 18 13.9706 18 9C18 4.02944 13.9706 0 9 0C4.02944 0 0 4.02944 0 9C0 13.9706 4.02944 18 9 18Z" fill="#B22234"/>
    <path d="M0.03479 8.30765H17.9652C17.9295 7.84115 17.8575 7.37815 17.7498 6.92285H0.25019C0.142505 7.37815 0.0704868 7.84115 0.03479 8.30765Z" fill="white"/>
    <path d="M4.21866 16.6152H13.7815C14.4035 16.2248 14.9755 15.76 15.4849 15.231H2.51526C3.02459 15.76 3.59662 16.2248 4.21866 16.6152Z" fill="white"/>
    <path d="M0.25019 11.0772H17.7498C17.8575 10.6219 17.9295 10.1589 17.9652 9.69238H0.03479C0.0704868 10.1589 0.142505 10.6219 0.25019 11.0772Z" fill="white"/>
    <path d="M1.42437 13.8462H16.5756C16.8599 13.407 17.1051 12.9436 17.3082 12.4614H0.691772C0.894872 12.9436 1.14002 13.407 1.42437 13.8462Z" fill="white"/>
    <path d="M0.691772 5.53861H17.3082C17.1051 5.05641 16.8599 4.59302 16.5756 4.15381H1.42437C1.14002 4.59302 0.894872 5.05641 0.691772 5.53861Z" fill="white"/>
    <path d="M2.51526 2.76897H15.4849C14.9755 2.23978 14.4032 1.77493 13.7809 1.38477H4.21926C3.59692 1.77493 3.02467 2.23978 2.51526 2.76897Z" fill="white"/>
    <path d="M0 9C0 9.234 0.0174 9.4638 0.0348 9.6936H9V0C6.61305 0 4.32387 0.948212 2.63604 2.63604C0.948212 4.32387 0 6.61305 0 9Z" fill="#3C3B6E"/>
    <path d="M0.0839822 7.83283V7.81543L0.0767822 7.82023L0.0839822 7.83283Z" fill="white"/>
    <path d="M6.71992 5.26221L6.59512 5.64441H6.19312L6.51832 5.88141L6.39412 6.26361L6.71992 6.02721L7.04512 6.26361L6.92092 5.88141L7.24612 5.64441H6.84412L6.71992 5.26221Z" fill="white"/>
    <path d="M6.71992 3.32324L6.59512 3.70604H6.19312L6.51832 3.94244L6.39412 4.32524L6.71992 4.08884L7.04512 4.32524L6.92092 3.94244L7.24612 3.70604H6.84412L6.71992 3.32324Z" fill="white"/>
    <path d="M6.84412 7.58397L6.71992 7.20117L6.59512 7.58397H6.19312L6.51832 7.82037L6.39412 8.20317L6.71992 7.96617L7.04512 8.20317L6.92092 7.82037L7.24612 7.58397H6.84412Z" fill="white"/>
    <path d="M6.71992 1.38477L6.59512 1.76757H6.19312L6.51832 2.00397L6.39412 2.38677L6.71992 2.15037L7.04512 2.38677L6.92092 2.00397L7.24612 1.76757H6.84412L6.71992 1.38477Z" fill="white"/>
    <path d="M7.98413 8.55272L7.85993 8.16992L7.73573 8.55272H7.33313L7.65833 8.78912L7.53413 9.17192L7.85993 8.93552L8.18513 9.17192L8.06093 8.78912L8.38673 8.55272H7.98413Z" fill="white"/>
    <path d="M7.85993 6.23145L7.73573 6.61425H7.33313L7.65833 6.85065L7.53413 7.23345L7.85993 6.99705L8.18513 7.23345L8.06093 6.85065L8.38673 6.61425H7.98413L7.85993 6.23145Z" fill="white"/>
    <path d="M7.85993 2.354L7.73573 2.7368H7.33313L7.65833 2.9732L7.53413 3.356L7.85993 3.119L8.18513 3.356L8.06093 2.9732L8.38673 2.7368H7.98413L7.85993 2.354Z" fill="white"/>
    <path d="M7.85993 4.29297L7.73573 4.67577H7.33313L7.65833 4.91217L7.53413 5.29497L7.85993 5.05857L8.18513 5.29497L8.06093 4.91217L8.38673 4.67577H7.98413L7.85993 4.29297Z" fill="white"/>
    <path d="M7.85993 0.415039L7.73573 0.797839H7.33313L7.65833 1.03484L7.53413 1.41704L7.85993 1.18064L8.18513 1.41704L8.06093 1.03484L8.38673 0.797839H7.98413L7.85993 0.415039Z" fill="white"/>
    <path d="M5.70349 8.55272L5.57929 8.16992L5.45509 8.55272H5.05249L5.37829 8.78912L5.25409 9.17192L5.57929 8.93552L5.90509 9.17192L5.78089 8.78912L6.10609 8.55272H5.70349Z" fill="white"/>
    <path d="M5.57929 6.23145L5.45509 6.61425H5.05249L5.37829 6.85065L5.25409 7.23345L5.57929 6.99705L5.90509 7.23345L5.78089 6.85065L6.10609 6.61425H5.70349L5.57929 6.23145Z" fill="white"/>
    <path d="M5.57929 2.354L5.45509 2.7368H5.05249L5.37829 2.9732L5.25409 3.356L5.57929 3.119L5.90509 3.356L5.78089 2.9732L6.10609 2.7368H5.70349L5.57929 2.354Z" fill="white"/>
    <path d="M5.57929 4.29297L5.45509 4.67577H5.05249L5.37829 4.91217L5.25409 5.29497L5.57929 5.05857L5.90509 5.29497L5.78089 4.91217L6.10609 4.67577H5.70349L5.57929 4.29297Z" fill="white"/>
    <path d="M5.25414 1.41693L5.57994 1.18053L5.90574 1.41693L5.78154 1.03473L6.10674 0.797726H5.70354L5.65554 0.648926C5.59554 0.671726 5.53914 0.689726 5.48214 0.713726L5.45514 0.797726H5.30814C5.25594 0.821126 5.20614 0.847526 5.15454 0.872126L5.37834 1.03473L5.25414 1.41693Z" fill="white"/>
    <path d="M4.4394 5.26221L4.3152 5.64441H3.9126L4.2384 5.88141L4.1136 6.26361L4.4394 6.02721L4.7652 6.26361L4.6404 5.88141L4.9662 5.64441H4.5636L4.4394 5.26221Z" fill="white"/>
    <path d="M4.4394 3.32324L4.3152 3.70604H3.9126L4.2384 3.94244L4.1136 4.32524L4.4394 4.08884L4.7652 4.32524L4.6404 3.94244L4.9662 3.70604H4.5636L4.4394 3.32324Z" fill="white"/>
    <path d="M4.5636 7.58397L4.4394 7.20117L4.3152 7.58397H3.9126L4.2384 7.82037L4.1136 8.20317L4.4394 7.96617L4.7652 8.20317L4.6404 7.82037L4.9662 7.58397H4.5636Z" fill="white"/>
    <path d="M4.4394 1.38477L4.3152 1.76757H3.9126L4.2384 2.00397L4.1136 2.38677L4.4394 2.15037L4.7652 2.38677L4.6404 2.00397L4.9662 1.76757H4.5636L4.4394 1.38477Z" fill="white"/>
    <path d="M3.42358 8.55272L3.29938 8.16992L3.17518 8.55272H2.77258L3.09778 8.78912L2.97358 9.17192L3.29938 8.93552L3.62458 9.17192L3.50038 8.78912L3.82618 8.55272H3.42358Z" fill="white"/>
    <path d="M3.29938 6.23145L3.17518 6.61425H2.77258L3.09778 6.85065L2.97358 7.23345L3.29938 6.99705L3.62458 7.23345L3.50038 6.85065L3.82618 6.61425H3.42358L3.29938 6.23145Z" fill="white"/>
    <path d="M3.29938 2.354L3.17518 2.7368H2.77258L3.09778 2.9732L2.97358 3.356L3.29938 3.119L3.62458 3.356L3.50038 2.9732L3.82618 2.7368H3.42358L3.29938 2.354Z" fill="white"/>
    <path d="M3.29938 4.29297L3.17518 4.67577H2.77258L3.09778 4.91217L2.97358 5.29497L3.29938 5.05857L3.62458 5.29497L3.50038 4.91217L3.82618 4.67577H3.42358L3.29938 4.29297Z" fill="white"/>
    <path d="M2.15937 5.26221L2.03457 5.64441H1.63257L1.95777 5.88141L1.83357 6.26361L2.15937 6.02721L2.48457 6.26361L2.36037 5.88141L2.68557 5.64441H2.28357L2.15937 5.26221Z" fill="white"/>
    <path d="M1.83351 4.32524L2.15991 4.08884L2.48511 4.32524L2.36091 3.94244L2.68611 3.70604H2.28411L2.15991 3.32324L2.03511 3.70604H1.73511C1.72371 3.72224 1.71111 3.73724 1.69971 3.75344L1.96011 3.94244L1.83351 4.32524Z" fill="white"/>
    <path d="M2.28357 7.58397L2.15937 7.20117L2.03457 7.58397H1.63257L1.95777 7.82037L1.83357 8.20317L2.15937 7.96617L2.48457 8.20317L2.36037 7.82037L2.68557 7.58397H2.28357Z" fill="white"/>
    <path d="M1.14294 8.55272L1.01874 8.16992L0.894543 8.55272H0.491943L0.817743 8.78912L0.693543 9.17192L1.01874 8.93552L1.34454 9.17192L1.22034 8.78912L1.54554 8.55272H1.14294Z" fill="white"/>
    <path d="M1.01874 6.23145L0.894543 6.61425H0.491943L0.817743 6.85065L0.693543 7.23345L1.01874 6.99705L1.34454 7.23345L1.22034 6.85065L1.54554 6.61425H1.14294L1.01874 6.23145Z" fill="white"/>
    <path d="M1.3445 5.29492L1.2203 4.91212L1.5455 4.67572H1.1429L1.1303 4.63672C1.0343 4.81012 0.950302 4.99012 0.864502 5.17072L1.0199 5.05852L1.3445 5.29492Z" fill="white"/>
    <path d="M0.0839426 7.83301C0.0731426 7.91881 0.0545426 8.00161 0.0461426 8.08801L0.204543 8.20321L0.0839426 7.83301Z" fill="white"/>
    <path d="M0.405595 7.58398H0.119995C0.107395 7.66078 0.0947947 7.73758 0.0845947 7.81558L0.405595 7.58398Z" fill="white"/>
</svg>
